<svg width="15" height="16" viewBox="0 0 15 16" fill="none" xmlns="http://www.w3.org/2000/svg">
<path d="M14.6637 11.8947L12.3472 9.57242C11.8858 9.11179 11.1217 9.12578 10.6442 9.60456L9.47714 10.7741C9.4034 10.7334 9.32708 10.6908 9.24684 10.6457C8.50985 10.2364 7.50115 9.67536 6.43971 8.61063C5.37512 7.54366 4.8149 6.53102 4.40529 5.79182C4.36206 5.7135 4.32065 5.638 4.27976 5.56629L5.06303 4.78234L5.44812 4.39587C5.92633 3.9164 5.93952 3.15071 5.47919 2.68874L3.16268 0.36624C2.70235 -0.0950886 1.9379 -0.0810933 1.45969 0.398377L0.806819 1.05655L0.82466 1.0743C0.605743 1.3543 0.422809 1.67723 0.286676 2.02547C0.161186 2.35695 0.0830569 2.67327 0.0473321 2.99024C-0.258548 5.53204 0.900246 7.85505 4.04507 11.0073C8.39216 15.3644 11.8954 15.0352 12.0465 15.0192C12.3756 14.9797 12.6911 14.9009 13.0117 14.7761C13.3561 14.6412 13.678 14.4581 13.9572 14.2392L13.9714 14.2519L14.6328 13.6027C15.1101 13.1233 15.1238 12.3574 14.6637 11.8947Z" fill="#FAB339"/>
</svg>
